<svg xmlns="http://www.w3.org/2000/svg" viewBox="0 0 488.12 201.52"><defs><style>.cls-1{fill:none;stroke:#222;stroke-miterlimit:10;stroke-width:2px;}.cls-2{fill:#ff242b;}</style></defs><title>logo-dark</title><g id="Layer_2" data-name="Layer 2"><g id="Layer_1-2" data-name="Layer 1"><path class="cls-1" d="M27.34,144.34A43.64,43.64,0,0,1,8.48,129.65Q1.41,119.92,1,106.22H36.24Q37,114,41.46,118t11.61,4.07q7.35,0,11.6-3.47A11.75,11.75,0,0,0,68.93,109a11.55,11.55,0,0,0-3.39-8.54,27.31,27.31,0,0,0-8.31-5.56,135,135,0,0,0-14-5A150,150,0,0,1,21.73,81.6,39.91,39.91,0,0,1,7.41,69.29q-6-8.13-6-21.24,0-19.45,13.73-30.47t35.79-11q22.44,0,36.17,11t14.71,30.67H66a14.51,14.51,0,0,0-4.84-10.62,16.76,16.76,0,0,0-11.41-3.87A14,14,0,0,0,40.11,37q-3.69,3.28-3.68,9.43,0,6.75,6.19,10.52T62,65.12a177,177,0,0,1,21.38,8.74A41,41,0,0,1,97.56,86q6,7.94,6,20.45a41,41,0,0,1-5.9,21.64,41.83,41.83,0,0,1-17.12,15.48Q69.32,149.3,54,149.3A68.2,68.2,0,0,1,27.34,144.34Z"/><path class="cls-1" d="M225,37.13,157.33,200.52H121.74l24.76-56.38-43.91-107h36.95l25,69.29,24.76-69.29Z"/><path class="cls-1" d="M302.12,82.9a22.1,22.1,0,0,0-5.31-12.42q-5.61-6.15-15.09-6.15t-15.09,6.15Q261,76.65,261,87.76v60.15H227.94V37.13H261V51.82a35.16,35.16,0,0,1,13.54-11.61,42.06,42.06,0,0,1,19.15-4.27q19,0,30.28,12.61T335.3,83.19v64.72H302.42V87.76a37.52,37.52,0,0,0-.3-4.86"/><path class="cls-1" d="M415.2,147.91l-32.89-46.46v46.46H349.23V1h33.08V82.2L415,37.13h40.82L410.94,92.72l45.27,55.19Z"/><path class="cls-2" d="M461.58,147.91V120.67h26.54v27.24Z"/></g></g></svg>