<svg xmlns="http://www.w3.org/2000/svg" viewBox="0 0 492.17 204.52"><defs><style>.cls-1{fill:none;stroke:#fff;}.cls-1,.cls-2{stroke-miterlimit:10;stroke-width:5px;}.cls-2{fill:#ff242b;stroke:#f23d4f;}</style></defs><title>logo-light</title><g id="Layer_2" data-name="Layer 2"><g id="Layer_1-2" data-name="Layer 1"><path class="cls-1" d="M28.88,145.84A43.7,43.7,0,0,1,10,131.15Q3,121.42,2.57,107.72H37.78q.77,7.74,5.22,11.81t11.61,4.07q7.35,0,11.61-3.47a11.77,11.77,0,0,0,4.25-9.63A11.58,11.58,0,0,0,67.09,102a27.36,27.36,0,0,0-8.32-5.56,135,135,0,0,0-14-5A150,150,0,0,1,23.27,83.1,39.8,39.8,0,0,1,9,70.79Q3,62.66,3,49.55,3,30.1,16.69,19.08t35.79-11q22.44,0,36.18,11t14.7,30.67H67.57a14.51,14.51,0,0,0-4.84-10.62,16.75,16.75,0,0,0-11.41-3.87,14,14,0,0,0-9.67,3.27Q38,41.82,38,48q0,6.75,6.19,10.52t19.35,8.14a176.81,176.81,0,0,1,21.37,8.74A41,41,0,0,1,99.1,87.47q6,7.94,6,20.45a41,41,0,0,1-5.9,21.64A41.77,41.77,0,0,1,82.08,145q-11.22,5.76-26.5,5.76A68.25,68.25,0,0,1,28.88,145.84Z"/><path class="cls-1" d="M226.58,38.63,158.88,202h-35.6L148,145.64l-43.91-107h37L166,107.92,190.8,38.63Z"/><path class="cls-1" d="M303.66,84.4A22.1,22.1,0,0,0,298.35,72q-5.61-6.15-15.09-6.15T268.17,72q-5.61,6.17-5.61,17.28v60.15H229.48V38.63h33.08V53.32A35.23,35.23,0,0,1,276.1,41.71a42.09,42.09,0,0,1,19.15-4.27q19,0,30.28,12.61t11.32,34.64v64.72H304V89.26a37.52,37.52,0,0,0-.3-4.86"/><path class="cls-1" d="M416.74,149.41,383.85,103v46.46H350.77V2.5h33.08V83.7l32.7-45.07h40.81L412.49,94.22l45.26,55.19Z"/><path class="cls-2" d="M463.12,149.41V122.17h26.55v27.24Z"/></g></g></svg>